<svg version="1.1" id="Layer_1" xmlns="http://www.w3.org/2000/svg" xmlns:xlink="http://www.w3.org/1999/xlink" x="0px" y="0px" viewBox="465 277 400 218" preserveAspectRatio="xMinYMin meet" xml:space="preserve">
	<path opacity="1.000000" stroke="none" d=" M491.045837,420.161133   C500.367828,409.752686 509.804199,399.891968 518.380249,389.332581   C540.413696,362.203522 561.644226,334.413147 584.020996,307.575287   C598.462708,290.254456 618.035339,281.163910 640.354248,278.382599   C647.602051,277.479462 654.966858,277.532684 662.273682,277.078094   C665.456665,276.880066 666.769470,278.176544 666.758667,281.427673   C666.688660,302.423859 666.772156,323.420685 666.642334,344.416290   C666.632202,346.053528 665.716675,347.955109 664.653503,349.276428   C636.801025,383.893219 608.514587,418.167938 581.087158,453.116974   C563.348206,475.720612 541.253113,490.516724 512.706726,493.893738   C498.395172,495.586731 483.760376,494.619354 469.272156,494.598724   C468.210480,494.597198 466.247467,492.525513 466.226196,491.387817   C465.855530,471.569794 465.741821,451.747070 465.517914,431.926025   C465.485870,429.091522 466.895416,428.321350 469.493835,428.047272   C477.180298,427.236420 484.623138,425.565460 491.045837,420.161133  z" fill="#000"/>
	<path opacity="1.000000" stroke="none" d=" M811.752502,316.000000   C811.745178,325.165009 811.860107,333.833160 811.639099,342.492706   C811.588806,344.466370 810.854004,346.796814 809.628113,348.309937   C792.243530,369.767670 774.679993,391.080383 757.243225,412.496033   C744.843506,427.725128 733.124207,443.548004 720.114990,458.232117   C697.992554,483.202484 669.706787,495.049194 636.332642,494.788818   C633.290100,494.765076 632.256714,493.527039 632.266541,490.579102   C632.335388,469.916718 632.268677,449.253845 632.382690,428.591888   C632.390991,427.093140 633.154968,425.334686 634.119568,424.144135   C652.246155,401.770416 670.494507,379.495361 688.636169,357.133789   C701.743408,340.977600 714.263855,324.318512 727.896240,308.622101   C743.839722,290.264771 764.694458,280.446075 788.713684,277.426117   C794.806824,276.660004 800.993042,276.643250 807.133911,276.243103   C810.587280,276.018036 811.814941,277.592041 811.778503,281.006958   C811.655823,292.503448 811.744873,304.002136 811.752502,316.000000  z" fill="#000"/>
	<path opacity="1.000000" stroke="none" fill="#000" d=" M798.000183,494.777649   C791.838867,494.770660 786.177185,494.725098 780.516235,494.772766   C778.075867,494.793304 776.188843,494.394012 776.259827,491.327026   C776.625122,475.532257 775.486267,459.532806 777.638489,443.987793   C781.144714,418.663422 793.964233,397.903076 815.479492,383.653870   C828.635315,374.940979 843.412292,369.775452 859.559204,369.265747   C864.356873,369.114288 865.546143,370.950012 865.537903,375.338470   C865.466003,413.469330 865.486389,451.600708 865.652710,489.731201   C865.670349,493.780609 864.265930,494.844940 860.442139,494.820770   C839.795593,494.690186 819.147583,494.769806 798.000183,494.777649  z"/>
</svg>
