<svg version="1.1" id="Layer_1" xmlns="http://www.w3.org/2000/svg" xmlns:xlink="http://www.w3.org/1999/xlink" x="0px" y="0px" viewBox="0 0 400 218" preserveAspectRatio="xMidYMid meet" xml:space="preserve">
	<circle cx="200" cy="109" r="100" fill="#000"/>
	<path opacity="1.000000" stroke="none" d="M126.380558 123.089233 C130.203156 118.821120 134.072658 114.777609 137.589374 110.447601 C146.624463 99.322993 155.330306 87.927204 164.506179 76.922006 C170.428182 69.819384 178.454183 66.091692 187.606330 64.951181 C190.578381 64.580838 193.598412 64.602663 196.594666 64.416252 C197.899888 64.335049 198.438220 64.866686 198.433790 66.199851 C198.405083 74.809599 198.439321 83.419608 198.386086 92.029117 C198.381932 92.700487 198.006508 93.480254 197.570541 94.022078 C190.249911 108.217123 178.650705 122.271898 167.403746 136.603185 C160.129668 145.872088 151.069301 151.939418 139.363499 153.324205 C133.494869 154.018438 127.493689 153.621753 121.552614 153.613293 C121.117260 153.612667 120.312302 152.763147 120.303580 152.296621 C120.151584 144.169994 120.104956 136.041439 120.013140 127.913573 C120.000000 126.751250 120.578002 126.435431 121.643516 126.323042 C124.795446 125.990542 127.847475 125.305344 126.380558 123.089233 z" fill="#FFF"/>
	<path opacity="1.000000" stroke="none" d="M257.890316 80.376664 C257.887313 84.134890 257.934441 87.689373 257.843814 91.240328 C257.823190 92.049653 257.521876 93.005281 257.019184 93.625756 C249.890419 102.424766 242.688272 111.164309 235.538109 119.946063 C230.453450 126.190943 225.647805 132.679310 220.313214 138.700713 C211.241634 148.940123 199.642703 153.798014 185.957220 153.691243 C184.709588 153.681508 184.285835 153.173835 184.289865 151.964997 C184.318096 143.492129 184.290741 135.019061 184.337493 126.546369 C184.340897 125.931788 184.654175 125.210712 185.049721 124.722512 C192.482754 115.547890 199.965718 106.413727 207.404932 97.244086 C212.779718 90.619040 217.913883 83.787774 223.504013 77.351265 C230.041836 69.823613 238.593580 65.797335 248.442962 64.558964 C250.941530 64.244809 253.478266 64.237939 255.996405 64.073854 C257.412502 63.981562 257.915920 64.627003 257.900978 66.027332 C257.850672 70.741611 257.887188 75.456791 257.890316 80.376664 z" fill="#FFF"/>
	<path opacity="1.000000" stroke="none" fill="#FFF" d="M252.251007 153.686663 C249.724482 153.683797 247.402839 153.665114 245.081496 153.684661 C244.080793 153.693083 243.306995 153.529348 243.336103 152.271693 C243.485897 145.794851 243.018895 139.234077 243.901441 132.859651 C245.339212 122.475078 250.596015 113.962040 259.418615 108.118975 C264.813324 104.546146 270.872807 102.427957 277.494049 102.218946 C279.461393 102.156839 279.949068 102.909600 279.945689 104.709142 C279.916205 120.345176 279.924565 135.981422 279.992767 151.617305 C280.000000 153.277815 279.424101 153.714257 277.856107 153.704346 C269.389734 153.650798 260.922761 153.683447 252.251007 153.686663 z"/>
</svg>
